<?xml version="1.0" encoding="utf-8"?>
<!-- Generator: Adobe Illustrator 22.1.0, SVG Export Plug-In . SVG Version: 6.00 Build 0)  -->
<svg version="1.1" id="Layer_1" xmlns="http://www.w3.org/2000/svg" xmlns:xlink="http://www.w3.org/1999/xlink" x="0px" y="0px"
	 viewBox="0 0 297.5 337.3" style="enable-background:new 0 0 297.5 337.3;" xml:space="preserve">
<style type="text/css">
	.st0{fill:#1572B6;}
	.st1{fill:#33A9DC;}
	.st2{fill:#FFFFFF;}
	.st3{fill:#EBEBEB;}
</style>
<title>Slice 1</title>
<g>
	<path id="Shape_1_" class="st0" d="M27.1,303.6L0,0h297.5l-27.1,303.6l-121.8,33.8L27.1,303.6L27.1,303.6z"/>
	<path id="Shape_2_" class="st1" d="M148.7,311.5l98.4-27.3l23.2-259.4H148.7L148.7,311.5L148.7,311.5z"/>
	<g>
		<path id="Shape_3_" class="st2" d="M148.7,134.8H198l3.4-38.1h-52.7V59.5h93.4l-0.9,10l-9.2,102.6h-83.3L148.7,134.8L148.7,134.8z
			"/>
		<path id="Shape_4_" class="st3" d="M148.9,231.5l-0.2,0l-41.5-11.2l-2.7-29.7H67.3l5.2,58.5l76.3,21.2l0.2,0V231.5z"/>
		<path id="Shape_5_" class="st2" d="M194.8,170.5l-4.5,49.9l-41.5,11.2v38.7l76.3-21.2l0.6-6.3l6.5-72.4H194.8L194.8,170.5z"/>
		<path class="st3" d="M148.9,59.5v37.2H58.9l-0.7-8.4l-1.7-18.9l-0.9-10H148.9z M148.7,134.8v37.2h-40.9l-0.7-8.4l-1.7-18.9
			l-0.9-10H148.7z"/>
	</g>
</g>
</svg>
