<?xml version="1.0" encoding="utf-8"?>
<!-- Generator: Adobe Illustrator 22.1.0, SVG Export Plug-In . SVG Version: 6.00 Build 0)  -->
<svg version="1.1" id="Layer_1" xmlns="http://www.w3.org/2000/svg" xmlns:xlink="http://www.w3.org/1999/xlink" x="0px" y="0px"
	 viewBox="0 0 297.5 337.3" style="enable-background:new 0 0 297.5 337.3;" xml:space="preserve">
<style type="text/css">
	.st0{fill:#E44F26;}
	.st1{fill:#F1662A;}
	.st2{fill:#EBEBEB;}
	.st3{fill:#FFFFFF;}
</style>
<title>Slice 1</title>
<g>
	<path id="Shape" class="st0" d="M27.1,303.6L0,0h297.5l-27.1,303.6l-121.8,33.8L27.1,303.6L27.1,303.6z"/>
	<path id="Shape_1_" class="st1" d="M148.7,311.5l98.4-27.3l23.2-259.4H148.7V311.5L148.7,311.5z"/>
	<path id="Shape_2_" class="st2" d="M148.7,137.4H99.4L96,99.3h52.7V62.1H55.3l0.9,10l9.2,102.6h83.3V137.4L148.7,137.4z
		 M148.7,234.1l-0.2,0L107.1,223l-2.7-29.7H67.1l5.2,58.5l76.3,21.2l0.2,0V234.1z"/>
	<path class="st3" d="M148.6,137.4v37.2h45.9l-4.3,48.3l-41.5,11.2v38.7l76.3-21.2l0.6-6.3l8.8-98l0.9-10L148.6,137.4L148.6,137.4z
		 M148.6,62.1v37.2h89.9l0.7-8.4l1.7-18.9l0.9-10H148.6z"/>
</g>
</svg>
