<svg xmlns="http://www.w3.org/2000/svg" viewBox="0 0 688.42 38.51"><defs><style>.cls-1{fill:#fff;}</style></defs><title>logo</title><g id="Layer_2" data-name="Layer 2"><g id="Layer_1-2" data-name="Layer 1"><path class="cls-1" d="M23.86,9.59,20.37,0H13.8L10.27,9.59,0,37.46H6q.93-2.67,2-5.53t2-5.52H30Zm-12.14,12q1.41-3.84,2.71-7.36c.57-1.53,1.15-3.1,1.75-4.68.31-.84.62-1.67.93-2.52L18,9.59l4.29,12Z"/><polygon class="cls-1" points="82.1 28.4 70.84 9.59 65.1 0 58.6 0 58.6 9.59 58.6 37.46 64.14 37.46 64.14 9.59 64.14 8.85 64.57 9.59 81.11 37.46 87.64 37.46 82.1 28.4"/><path class="cls-1" d="M199,34.88a7.56,7.56,0,0,1-.44-2.4V27a11.8,11.8,0,0,0-.19-2.13,9,9,0,0,0-.63-2.05,7.29,7.29,0,0,0-1.16-1.8,6.11,6.11,0,0,0-1.77-1.38A10.5,10.5,0,0,0,198,15.77,11.29,11.29,0,0,0,199,10.93a8.55,8.55,0,0,0-.11-1.34A10.87,10.87,0,0,0,198.28,7,10.45,10.45,0,0,0,196,3.52,11.76,11.76,0,0,0,192.33,1a12.35,12.35,0,0,0-5-1h-15.6V22h15.59a7.35,7.35,0,0,1,2.69.44,5.36,5.36,0,0,1,1.79,1.15,4.21,4.21,0,0,1,1,1.59,5.43,5.43,0,0,1,.31,1.81v5.71c0,.29,0,.64,0,1s.08.81.15,1.23a8.09,8.09,0,0,0,.32,1.29,5.94,5.94,0,0,0,.57,1.22h6A14.71,14.71,0,0,1,199,34.88Zm-6-21.51a6.37,6.37,0,0,1-1.35,2,6.24,6.24,0,0,1-2,1.33,5.75,5.75,0,0,1-2.37.49H177.23V4.9h10.06a6.62,6.62,0,0,1,2.47.45,5.77,5.77,0,0,1,3.57,4.24,6.3,6.3,0,0,1-.36,3.78Z"/><polygon class="cls-1" points="231.67 32.56 231.67 20.55 231.67 15.65 231.67 9.59 231.67 4.9 251.89 4.9 251.89 0 226.13 0 226.13 9.59 226.13 37.46 252.77 37.46 252.77 32.56 231.67 32.56"/><path class="cls-1" d="M317.32,0l-2.27,9.59-4.21,17.72L305.46,9.59,302.55,0h-4.93l-2.8,9.59c-.41,1.39-.82,2.76-1.23,4.16-1.35,4.63-2.71,9.23-4,13.8l-4.36-18L282.85,0h-5.74l2.42,9.59,7.05,27.87h5.27q2.06-6.78,4.16-13.64l4.22-13.71,8.06,27.35h5.28l7-27.87L323,0Z"/><path class="cls-1" d="M412.3,11.43a17.61,17.61,0,0,0-.73-1.84A17.19,17.19,0,0,0,409,5.5a15.7,15.7,0,0,0-5.17-4A15.31,15.31,0,0,0,397,0H382.79V37.46H397A15.22,15.22,0,0,0,403.66,36a15.5,15.5,0,0,0,5.18-4,18.57,18.57,0,0,0,3.39-6,22,22,0,0,0,1.22-7.41A22.64,22.64,0,0,0,412.3,11.43Zm-5.41,13.15a12.47,12.47,0,0,1-2.57,4.34,11.26,11.26,0,0,1-3.92,2.71,12.8,12.8,0,0,1-4.92.94h-7.21V4.9h7.21a14.29,14.29,0,0,1,4.91.82,10,10,0,0,1,3.91,2.52,11.21,11.21,0,0,1,1.08,1.35,12.83,12.83,0,0,1,1.5,3,18.42,18.42,0,0,1,.94,6.18A17.1,17.1,0,0,1,406.89,24.58Z"/><path class="cls-1" d="M463,9.59v15.5a8.41,8.41,0,0,1-.79,3.72,8.16,8.16,0,0,1-2.09,2.7,9,9,0,0,1-2.9,1.64,9.87,9.87,0,0,1-3.25.56,8,8,0,0,1-3-.6,8.39,8.39,0,0,1-2.68-1.73,8.61,8.61,0,0,1-1.92-2.74,8.78,8.78,0,0,1-.73-3.67V0H440.1V24.71a13.5,13.5,0,0,0,1.25,6A13.11,13.11,0,0,0,444.58,35a13.7,13.7,0,0,0,4.48,2.6,14.83,14.83,0,0,0,5,.88,15.85,15.85,0,0,0,3.47-.39,15.63,15.63,0,0,0,3.36-1.19,15.43,15.43,0,0,0,3-2,12.68,12.68,0,0,0,2.43-2.68,13,13,0,0,0,2.24-7.47V9.59Z"/><path class="cls-1" d="M516.49,9.59,513,0h-6.57L502.9,9.59,492.63,37.46h5.95q.93-2.67,2-5.53t2-5.52h20.06Zm-12.14,12c.94-2.56,1.84-5,2.72-7.36.56-1.53,1.15-3.1,1.74-4.68l.93-2.52.9,2.52,4.29,12Z"/><polygon class="cls-1" points="605.7 0 605.7 4.9 617.66 4.9 617.66 9.59 617.66 37.46 623.16 37.46 623.16 9.59 623.16 4.9 635.12 4.9 635.12 0 605.7 0"/><polygon class="cls-1" points="667.31 32.56 667.31 20.55 686.37 20.55 686.37 15.65 667.31 15.65 667.31 9.59 667.31 4.9 687.53 4.9 687.53 0 661.78 0 661.78 9.59 661.78 37.46 688.41 37.46 688.41 32.56 667.31 32.56"/><path class="cls-1" d="M143.87,11.43c-.22-.64-.47-1.25-.74-1.84a17.16,17.16,0,0,0-2.54-4.09,15.84,15.84,0,0,0-5.18-4A15.27,15.27,0,0,0,128.6,0H114.36V4.9h12.69a14.24,14.24,0,0,1,4.9.82,10,10,0,0,1,3.92,2.52,9.63,9.63,0,0,1,1.07,1.35,13.25,13.25,0,0,1,1.51,3,18.44,18.44,0,0,1,.93,6.18,17.1,17.1,0,0,1-.92,5.85,12.49,12.49,0,0,1-2.58,4.34A11.22,11.22,0,0,1,132,31.63a12.83,12.83,0,0,1-4.92.94H114.36v4.89H128.6A15.17,15.17,0,0,0,135.22,36a15.51,15.51,0,0,0,5.19-4,18.63,18.63,0,0,0,3.39-6A22.08,22.08,0,0,0,145,18.67,22.64,22.64,0,0,0,143.87,11.43Z"/><path class="cls-1" d="M578.11,27a11.81,11.81,0,0,0-.2-2.13,8.52,8.52,0,0,0-.62-2.05,7,7,0,0,0-1.17-1.8,5.85,5.85,0,0,0-1.77-1.38,10.3,10.3,0,0,0,3.15-3.87,11.15,11.15,0,0,0,1.07-4.84,10,10,0,0,0-.1-1.34A10.9,10.9,0,0,0,577.81,7a10.43,10.43,0,0,0-2.25-3.52A11.69,11.69,0,0,0,571.86,1a12.28,12.28,0,0,0-5-1H551.23V37.46h5.54V22h10.05a7.26,7.26,0,0,1,2.68.44,5.26,5.26,0,0,1,1.79,1.15,4.24,4.24,0,0,1,1,1.59,5.68,5.68,0,0,1,.3,1.81v5.12h5.52Zm-5.6-13.63a6.37,6.37,0,0,1-1.35,2,6.29,6.29,0,0,1-2,1.33,5.75,5.75,0,0,1-2.37.49H556.77V4.9h10.05a6.63,6.63,0,0,1,2.48.45,5.85,5.85,0,0,1,2,1.26,6,6,0,0,1,1.28,1.9,5.85,5.85,0,0,1,.33,1.08,6.38,6.38,0,0,1-.35,3.78Z"/></g></g></svg>