<svg xmlns="http://www.w3.org/2000/svg" xmlns:xlink="http://www.w3.org/1999/xlink" viewBox="0 0 70.13 18.31"><defs><style>.cls-1{fill:#231f20;}.cls-2{fill:#2c9951;}.cls-3{fill:url(#linear-gradient);}.cls-4{fill:url(#linear-gradient-2);}</style><linearGradient id="linear-gradient" y1="-1918.07" x2="13.84" y2="-1918.07" gradientTransform="matrix(1, 0, 0, -1, 0, -1910.99)" gradientUnits="userSpaceOnUse"><stop offset="0.1" stop-color="#1cb2c3"/><stop offset="0.24" stop-color="#4bb6ac"/><stop offset="0.47" stop-color="#6ebc8c"/><stop offset="0.66" stop-color="#82c26f"/><stop offset="0.81" stop-color="#8bc65b"/><stop offset="0.91" stop-color="#90c853"/></linearGradient><linearGradient id="linear-gradient-2" x1="6.99" y1="-1928.62" x2="17.77" y2="-1917.84" gradientTransform="matrix(1, 0, 0, -1, 0, -1910.99)" gradientUnits="userSpaceOnUse"><stop offset="0" stop-color="#90c853"/><stop offset="0.39" stop-color="#6fbd88"/><stop offset="0.91" stop-color="#1cb2c3"/></linearGradient></defs><title>open-colleges</title><g id="Layer_2" data-name="Layer 2"><g id="Layer_1-2" data-name="Layer 1"><path class="cls-1" d="M61.73,8.17v.44a1.59,1.59,0,0,0-1.3-.53,1.82,1.82,0,0,0-1.79,2,1.8,1.8,0,0,0,1.84,2,1.67,1.67,0,0,0,1.26-.54v.29c0,1-.41,1.45-1.27,1.45a2.6,2.6,0,0,1-1.23-.27l-.1,0v.67l0,0a3.45,3.45,0,0,0,1.33.24,1.86,1.86,0,0,0,2-2.12V8.17Zm-1.22,3.36c-1,0-1.07-1.08-1.07-1.41s.08-1.41,1.07-1.41a1.29,1.29,0,0,1,1.22,1.41A1.29,1.29,0,0,1,60.51,11.53Zm6.15-1.46c0-1.29-.61-2-1.71-2a1.74,1.74,0,0,0-1.35.57,2.12,2.12,0,0,0-.5,1.46,1.86,1.86,0,0,0,1.92,2,2.78,2.78,0,0,0,1.31-.26l0,0V11.2l-.1.06a2.36,2.36,0,0,1-1.17.28,1.22,1.22,0,0,1-1.21-1.13h2.76v-.34Zm-2.75-.26c.09-.77.42-1.15,1-1.15s.9.38.94,1.15Zm4.94-.07c-.63-.15-.9-.31-.9-.56s.25-.52.76-.52a2.31,2.31,0,0,1,.89.21l.11,0,.06,0,.23-.5,0,0a2.56,2.56,0,0,0-1.23-.32c-.75,0-1.49.36-1.49,1.17s.65.95,1.35,1.14c.55.14.79.25.79.6s-.43.55-.79.55a2.32,2.32,0,0,1-1.28-.4l-.1-.06v.72l0,0a3,3,0,0,0,1.41.33c.68,0,1.48-.33,1.48-1.24,0-.73-.52-1-1.28-1.17Z"/><path class="cls-1" d="M29.65,8.08a1.65,1.65,0,0,0-1.28.58.59.59,0,0,0-.63-.49,1.26,1.26,0,0,0-.46.12v.52a.47.47,0,0,1,.21-.06c.09,0,.16,0,.16.25v4.81h.75v-2.2a1.59,1.59,0,0,0,1.31.54,1.82,1.82,0,0,0,1.74-2,1.78,1.78,0,0,0-1.8-2Zm-.07,3.45a1.27,1.27,0,0,1-1.18-1.41,1.28,1.28,0,0,1,1.2-1.41c1,0,1,1.08,1,1.41C30.65,10.79,30.37,11.53,29.58,11.53Zm16.16-.41h0a2.85,2.85,0,0,1-1.47.38,2.09,2.09,0,0,1-2-2.35c0-1.42.78-2.37,2-2.37a3.37,3.37,0,0,1,1.34.28l.06,0,.24-.62-.06,0a3.94,3.94,0,0,0-1.63-.34,2.66,2.66,0,0,0-2,.85,3.15,3.15,0,0,0-.77,2.2,2.75,2.75,0,0,0,2.75,3,3.48,3.48,0,0,0,1.58-.33v-.74Zm-5.58.28a.54.54,0,0,1-.27.12c-.06,0-.08,0-.1,0s0-.1,0-.21V9.53a1.43,1.43,0,0,0-.35-1.07,1.6,1.6,0,0,0-2.29.22.56.56,0,0,0-.6-.51,1.31,1.31,0,0,0-.51.14v.54a.58.58,0,0,1,.27-.1c.09,0,.16,0,.16.25v3.05h.74V10.16c0-.34.08-1.44,1.07-1.44a.7.7,0,0,1,.53.19,1.09,1.09,0,0,1,.22.74v1.66a.83.83,0,0,0,.19.64.65.65,0,0,0,.48.16,1.11,1.11,0,0,0,.52-.13V11.4Zm11.93,0v0L52,11.4a.66.66,0,0,1-.28.11c-.1,0-.14,0-.14-.24V6.46a.62.62,0,0,0-.66-.7,1.36,1.36,0,0,0-.6.18v.54h0l.06,0a.5.5,0,0,1,.28-.1c.08,0,.15,0,.15.24v4.71c0,.39.08.81.66.81a1.23,1.23,0,0,0,.6-.18v-.54ZM26.14,7a2.82,2.82,0,0,0-4.09,0,3.29,3.29,0,0,0-.7,2.17,3.29,3.29,0,0,0,.7,2.17,2.84,2.84,0,0,0,4.09,0,3.31,3.31,0,0,0,.7-2.17A3.29,3.29,0,0,0,26.14,7Zm-2,4.56c-1.19,0-1.9-.89-1.9-2.38s.71-2.39,1.9-2.39S26,7.66,26,9.16,25.28,11.54,24.1,11.54Zm11.42-1.47c0-1.29-.61-2-1.71-2a1.79,1.79,0,0,0-1.36.57A2.16,2.16,0,0,0,32,10.11a1.86,1.86,0,0,0,1.92,2,2.78,2.78,0,0,0,1.31-.26l0,0V11.2l-.1.06a2.36,2.36,0,0,1-1.17.28,1.22,1.22,0,0,1-1.21-1.13h2.76v-.34Zm-2.76-.26c.09-.77.42-1.15,1-1.15s.91.38.95,1.15ZM48.11,8.08a1.85,1.85,0,0,0-1.91,2,1.91,1.91,0,1,0,3.82,0A1.85,1.85,0,0,0,48.11,8.08Zm0,3.46c-.83,0-1.12-.77-1.12-1.43s.3-1.44,1.12-1.44,1.12.77,1.12,1.44S48.94,11.54,48.11,11.54Zm6-.16v0L54,11.4a.66.66,0,0,1-.28.11c-.1,0-.15,0-.15-.24V6.46a.61.61,0,0,0-.65-.7,1.4,1.4,0,0,0-.61.18v.54h0l0,0a.53.53,0,0,1,.28-.1c.09,0,.16,0,.16.24v4.71c0,.39.08.81.66.81a1.23,1.23,0,0,0,.6-.18v-.54Zm4-1.31c0-1.29-.6-2-1.7-2A1.76,1.76,0,0,0,55,8.65a2.17,2.17,0,0,0-.5,1.46,1.86,1.86,0,0,0,1.93,2,2.81,2.81,0,0,0,1.31-.26l0,0V11.2l-.09.06a2.39,2.39,0,0,1-1.18.28,1.21,1.21,0,0,1-1.2-1.13h2.76Zm-2.75-.26c.09-.77.42-1.15,1-1.15s.9.38.94,1.15Z"/><path class="cls-2" d="M4.46,14.15A7.61,7.61,0,0,1,.14,10.73a9.17,9.17,0,0,0,8,7.52,7.68,7.68,0,0,1-3.69-4.1Zm9.37-10a7.65,7.65,0,0,1,4.32,3.42,9.13,9.13,0,0,0-8-7.52A7.61,7.61,0,0,1,13.83,4.16Z"/><path class="cls-3" d="M4.46,14.15a7.64,7.64,0,0,1,9.38-10A7.72,7.72,0,0,0,10.15.05c-.32,0-.65,0-1,0a9.19,9.19,0,0,0-9,10.73A7.7,7.7,0,0,0,4.46,14.15Z"/><path class="cls-4" d="M18.29,9.16a9.19,9.19,0,0,0-.13-1.58,7.61,7.61,0,0,0-4.32-3.42,7.64,7.64,0,0,1-9.38,10,7.72,7.72,0,0,0,3.69,4.1c.33,0,.66,0,1,0A9.16,9.16,0,0,0,18.29,9.16Z"/></g></g></svg>